<svg xmlns="http://www.w3.org/2000/svg" viewBox="0 0 347.59 280.28"><defs><style>.cls-1{fill:#56826d;}.cls-2{fill:#bd6957;}.cls-3{fill:#69a289;}.cls-4{fill:#7dd3aa;}.cls-5{fill:#bfddcc;}.cls-6{fill:#fff;}.cls-7{fill:#526b68;}.cls-8{fill:#b0191e;}.cls-9{fill:#609e48;}</style></defs><title>ifba</title><g id="Camada_2" data-name="Camada 2"><g id="Camada_1-2" data-name="Camada 1"><g id="arvores_atrás_ifba" data-name="arvores atrás ifba"><path class="cls-1" d="M58.13,117c-12.57.81-26.7,1.2-36-6-2.28-1.75-4.22-4.08-4.29-6.7-.13-4.89,5.87-8.18,7.93-12.74a8.54,8.54,0,0,0-.36-7.73c-1.5-2.67-4.32-4.62-6.34-7s-3.13-5.92-1-8.24c1.4-1.49,3.74-2,5.39-3.32,2.78-2.16,3-5.92,1.81-9s-3.46-5.68-5.08-8.58c-1.91-3.36-2.92-7.22-1.92-10.86a10.85,10.85,0,0,1,8.59-7.63c1.85-.29,3.87-.13,5.51-.93,3.3-1.58,3-5.61,4.08-8.71,1.4-4,6.08-7,10.94-6.84s9.35,3.56,9.89,7.68c.35,2.63-.74,5.51.69,7.87,2.68,4.45,10.67,2.82,15.87,5.08,6.49,2.82,6.52,11.55,1.43,16-1.05.91-2.31,1.77-2.64,3-.54,2,1.72,3.9,4.06,4.48s4.87.39,7.22.92a10.39,10.39,0,0,1,8.16,9.61c0,4.24-2.85,8.28-6.88,10.77-1.69,1-3.78,2.09-4.06,3.86-.45,2.8,3.67,4.21,6.51,5.66A12.68,12.68,0,0,1,93.42,104c-2.54,5.78-8.85,9.91-15.7,11.87s-14.25,2-21.44,1.56"/><path class="cls-2" d="M53.5,83.27q.75,30.75-1,61.39l2.84.08q.69-30.69,1.36-61.38a5.28,5.28,0,0,0-3.79-.14"/><path class="cls-3" d="M196,91.6c-10.31.66-21.89,1-29.55-4.95C164.6,85.2,163,83.3,163,81.14c-.11-4,4.81-6.71,6.5-10.45a7,7,0,0,0-.29-6.35c-1.24-2.19-3.55-3.79-5.2-5.76s-2.57-4.85-.79-6.75c1.15-1.23,3.06-1.68,4.42-2.73,2.27-1.77,2.45-4.86,1.47-7.36s-2.83-4.66-4.17-7a11.94,11.94,0,0,1-1.57-8.91,8.87,8.87,0,0,1,7-6.26c1.51-.24,3.16-.1,4.52-.75,2.7-1.31,2.46-4.62,3.35-7.15,1.15-3.26,5-5.72,9-5.6s7.67,2.92,8.11,6.29c.28,2.17-.61,4.53.56,6.47,2.19,3.64,8.75,2.31,13,4.18,5.32,2.31,5.35,9.47,1.17,13.11-.86.75-1.89,1.45-2.15,2.47-.45,1.67,1.41,3.2,3.34,3.68s4,.32,5.93.75a8.52,8.52,0,0,1,6.69,7.89c0,3.49-2.33,6.8-5.64,8.85-1.4.86-3.1,1.71-3.33,3.16-.37,2.3,3,3.46,5.34,4.65A10.38,10.38,0,0,1,225,80.93c-2.09,4.74-7.25,8.13-12.88,9.72s-11.67,1.63-17.59,1.28"/><path class="cls-3" d="M192.23,63.93q.61,25.21-.86,50.36l2.33.07q.56-25.19,1.11-50.35a4.29,4.29,0,0,0-3.11-.12"/><path class="cls-4" d="M68.49,24.65c1-2.88,4.73-3.6,7.79-3.48s6.51.52,8.8-1.51c1.45-1.29,2.06-3.26,3.13-4.86a9.3,9.3,0,0,1,17,5.94c-.12,1.49-.6,3-.28,4.47.47,2.13,2.46,3.55,4.48,4.35s4.22,1.18,6.1,2.29a9.24,9.24,0,0,1,4.12,10,9.28,9.28,0,0,1-8.49,6.72c-4,.09-8.34-2.42-11.8-.4a13.5,13.5,0,0,0-3.15,3.16C91.69,56.61,84,59.54,77.52,57.17S67,46.32,70.51,40.32a35.05,35.05,0,0,0,2.39-3.8C75.17,31.34,66.63,30,68.49,24.65Z"/><path class="cls-1" d="M121,85.56c-10.31.66-21.89,1-29.55-5-1.86-1.45-3.46-3.35-3.51-5.51-.11-4,4.81-6.71,6.5-10.45a7,7,0,0,0-.29-6.35c-1.24-2.19-3.55-3.79-5.2-5.76s-2.57-4.85-.79-6.75c1.15-1.23,3.06-1.68,4.42-2.73,2.27-1.77,2.45-4.85,1.47-7.35s-2.83-4.67-4.17-7a11.94,11.94,0,0,1-1.57-8.91,8.84,8.84,0,0,1,7-6.25c1.51-.24,3.16-.11,4.52-.76,2.7-1.31,2.46-4.62,3.35-7.15,1.15-3.25,5-5.72,9-5.6s7.67,2.92,8.11,6.3c.28,2.16-.61,4.52.56,6.46,2.19,3.64,8.75,2.31,13,4.18,5.32,2.31,5.35,9.47,1.17,13.11-.86.75-1.89,1.45-2.15,2.48-.45,1.66,1.41,3.19,3.34,3.67s4,.32,5.93.76a8.5,8.5,0,0,1,6.69,7.88c0,3.49-2.33,6.8-5.64,8.85-1.4.86-3.1,1.71-3.33,3.16-.37,2.31,3,3.46,5.34,4.65A10.38,10.38,0,0,1,150,74.89c-2.09,4.74-7.25,8.13-12.88,9.72s-11.67,1.63-17.59,1.28"/><path class="cls-1" d="M117.2,57.91q.61,25.22-.87,50.35c.78,0,1.56.06,2.33.07q.56-25.18,1.12-50.34a4.29,4.29,0,0,0-3.11-.12"/><path class="cls-4" d="M129,20.93c1-2.89,4.74-3.61,7.8-3.49s6.5.52,8.79-1.5c1.45-1.29,2.06-3.26,3.14-4.87a9.3,9.3,0,0,1,17,5.95c-.12,1.49-.6,3-.28,4.47.47,2.12,2.46,3.55,4.49,4.35S174.1,27,176,28.12a9.23,9.23,0,0,1,4.12,10,9.26,9.26,0,0,1-8.49,6.71c-4,.1-8.34-2.42-11.79-.4a13.78,13.78,0,0,0-3.16,3.17c-4.49,5.28-12.14,8.21-18.66,5.84S127.51,42.6,131,36.6a35.86,35.86,0,0,0,2.4-3.81C135.63,27.62,127.1,26.25,129,20.93Z"/><path class="cls-4" d="M185.46,46c.52-3,4.06-4.37,7.09-4.75s6.49-.59,8.41-3c1.22-1.51,1.47-3.56,2.27-5.33a9.31,9.31,0,0,1,17.76,3c.13,1.49-.08,3.06.48,4.45.81,2,3,3.09,5.16,3.54s4.35.45,6.38,1.24a9,9,0,0,1-1.47,17.21c-3.94.77-8.62-1-11.71,1.6a13.88,13.88,0,0,0-2.58,3.64c-3.55,6-10.57,10.15-17.4,8.91S187.67,67.55,190.1,61a37.73,37.73,0,0,0,1.72-4.15C193.16,51.43,184.52,51.51,185.46,46Z"/><path class="cls-1" d="M247.5,97.12c-10,2.39-21.42,4.67-30,.12-2.07-1.11-4-2.73-4.39-4.83-.78-3.94,3.62-7.42,4.64-11.4a7,7,0,0,0-1.35-6.2c-1.59-2-4.14-3.14-6.11-4.8s-3.35-4.35-1.91-6.53c.91-1.4,2.74-2.17,3.89-3.43,1.95-2.13,1.6-5.2.22-7.51s-3.58-4.12-5.3-6.22a11.94,11.94,0,0,1-3-8.53,8.86,8.86,0,0,1,5.89-7.35c1.46-.49,3.11-.65,4.32-1.52,2.45-1.74,1.65-5,2.1-7.61.59-3.4,3.95-6.47,7.89-7s8.05,1.57,9.06,4.84c.65,2.09.16,4.56,1.65,6.28,2.78,3.22,9,.79,13.54,1.91,5.64,1.39,6.86,8.44,3.37,12.73-.72.88-1.61,1.76-1.72,2.81-.16,1.71,1.93,2.91,3.91,3.06s4-.36,6-.26a8.51,8.51,0,0,1,7.93,6.64C268.7,55.72,267,59.38,264,62c-1.22,1.08-2.77,2.22-2.75,3.69,0,2.32,3.55,2.9,6,3.68a10.37,10.37,0,0,1,6.91,12.4c-1.26,5-5.77,9.24-11.05,11.76S251.93,97.05,246,97.72"/><path class="cls-1" d="M239.09,70.5q4.88,24.77,7.66,49.78l2.32-.34q-3.69-24.9-7.41-49.81a4.39,4.39,0,0,0-3.09.41"/><path class="cls-4" d="M244.44,32.07c.52-3,4.06-4.36,7.09-4.74s6.49-.59,8.41-3c1.22-1.52,1.47-3.57,2.27-5.33A9.31,9.31,0,0,1,280,22c.13,1.49-.08,3.06.48,4.46.81,2,3,3.09,5.16,3.54s4.35.45,6.38,1.24a9,9,0,0,1-1.47,17.21c-3.94.77-8.62-1-11.71,1.59a13.77,13.77,0,0,0-2.58,3.65c-3.55,6-10.57,10.15-17.4,8.91s-12.18-8.92-9.75-15.43A39.42,39.42,0,0,0,250.8,43C252.14,37.54,243.48,37.62,244.44,32.07Z"/></g><g id="IFBA"><rect class="cls-5" x="1.37" y="60.96" width="324.14" height="219.31"/><rect class="cls-6" x="187.59" y="205.8" width="118.62" height="44.13"/><path class="cls-6" d="M26.8,102.35H21.48a3.55,3.55,0,0,1-3.54-3.54V93.49A3.54,3.54,0,0,1,21.48,90H26.8a3.53,3.53,0,0,1,3.54,3.54v5.32A3.54,3.54,0,0,1,26.8,102.35Z"/><path class="cls-6" d="M61.28,102.35H56a3.54,3.54,0,0,1-3.54-3.54V93.49A3.53,3.53,0,0,1,56,90h5.32a3.54,3.54,0,0,1,3.54,3.54v5.32A3.54,3.54,0,0,1,61.28,102.35Z"/><path class="cls-6" d="M95.77,102.35H90.45a3.54,3.54,0,0,1-3.54-3.54V93.49A3.53,3.53,0,0,1,90.45,90h5.32a3.53,3.53,0,0,1,3.54,3.54v5.32A3.54,3.54,0,0,1,95.77,102.35Z"/><path class="cls-6" d="M130.25,102.35h-5.32a3.54,3.54,0,0,1-3.54-3.54V93.49A3.53,3.53,0,0,1,124.93,90h5.32a3.54,3.54,0,0,1,3.54,3.54v5.32A3.55,3.55,0,0,1,130.25,102.35Z"/><path class="cls-6" d="M164.72,102.35H159.4a3.54,3.54,0,0,1-3.53-3.54V93.49A3.53,3.53,0,0,1,159.4,90h5.32a3.53,3.53,0,0,1,3.54,3.54v5.32A3.52,3.52,0,0,1,164.72,102.35Z"/><path class="cls-6" d="M199.22,102.35h-5.33a3.54,3.54,0,0,1-3.53-3.54V93.49A3.53,3.53,0,0,1,193.89,90h5.33a3.53,3.53,0,0,1,3.53,3.54v5.32A3.54,3.54,0,0,1,199.22,102.35Z"/><path class="cls-6" d="M233.69,102.35h-5.32a3.55,3.55,0,0,1-3.54-3.54V93.49A3.54,3.54,0,0,1,228.37,90h5.32a3.53,3.53,0,0,1,3.54,3.54v5.32A3.53,3.53,0,0,1,233.69,102.35Z"/><path class="cls-6" d="M268.18,102.35h-5.32a3.55,3.55,0,0,1-3.54-3.54V93.49A3.54,3.54,0,0,1,262.86,90h5.32a3.53,3.53,0,0,1,3.54,3.54v5.32A3.54,3.54,0,0,1,268.18,102.35Z"/><path class="cls-6" d="M302.66,102.35h-5.32a3.54,3.54,0,0,1-3.54-3.54V93.49A3.53,3.53,0,0,1,297.34,90h5.32a3.53,3.53,0,0,1,3.54,3.54v5.32A3.53,3.53,0,0,1,302.66,102.35Z"/><path class="cls-6" d="M26.8,131.86H21.48a3.54,3.54,0,0,1-3.54-3.54V123a3.55,3.55,0,0,1,3.54-3.54H26.8A3.54,3.54,0,0,1,30.34,123v5.32A3.53,3.53,0,0,1,26.8,131.86Z"/><path class="cls-6" d="M61.28,131.86H56a3.53,3.53,0,0,1-3.54-3.54V123A3.54,3.54,0,0,1,56,119.46h5.32A3.55,3.55,0,0,1,64.82,123v5.32A3.53,3.53,0,0,1,61.28,131.86Z"/><path class="cls-6" d="M95.77,131.86H90.45a3.53,3.53,0,0,1-3.54-3.54V123a3.54,3.54,0,0,1,3.54-3.54h5.32A3.54,3.54,0,0,1,99.31,123v5.32A3.53,3.53,0,0,1,95.77,131.86Z"/><path class="cls-6" d="M130.25,131.86h-5.32a3.53,3.53,0,0,1-3.54-3.54V123a3.54,3.54,0,0,1,3.54-3.54h5.32a3.55,3.55,0,0,1,3.54,3.54v5.32A3.54,3.54,0,0,1,130.25,131.86Z"/><path class="cls-6" d="M164.72,131.86H159.4a3.53,3.53,0,0,1-3.53-3.54V123a3.54,3.54,0,0,1,3.53-3.54h5.32a3.54,3.54,0,0,1,3.54,3.54v5.32A3.51,3.51,0,0,1,164.72,131.86Z"/><path class="cls-6" d="M199.22,131.86h-5.33a3.53,3.53,0,0,1-3.53-3.54V123a3.54,3.54,0,0,1,3.53-3.54h5.33a3.54,3.54,0,0,1,3.53,3.54v5.32A3.53,3.53,0,0,1,199.22,131.86Z"/><path class="cls-6" d="M233.69,131.86h-5.32a3.54,3.54,0,0,1-3.54-3.54V123a3.55,3.55,0,0,1,3.54-3.54h5.32a3.54,3.54,0,0,1,3.54,3.54v5.32A3.52,3.52,0,0,1,233.69,131.86Z"/><path class="cls-6" d="M268.18,131.86h-5.32a3.54,3.54,0,0,1-3.54-3.54V123a3.55,3.55,0,0,1,3.54-3.54h5.32a3.54,3.54,0,0,1,3.54,3.54v5.32A3.53,3.53,0,0,1,268.18,131.86Z"/><path class="cls-6" d="M302.66,131.86h-5.32a3.53,3.53,0,0,1-3.54-3.54V123a3.54,3.54,0,0,1,3.54-3.54h5.32A3.54,3.54,0,0,1,306.2,123v5.32A3.53,3.53,0,0,1,302.66,131.86Z"/><path class="cls-6" d="M26.8,161.39H21.48a3.54,3.54,0,0,1-3.54-3.54v-5.32A3.55,3.55,0,0,1,21.48,149H26.8a3.54,3.54,0,0,1,3.54,3.54v5.32A3.55,3.55,0,0,1,26.8,161.39Z"/><path class="cls-6" d="M61.28,161.39H56a3.53,3.53,0,0,1-3.54-3.54v-5.32A3.54,3.54,0,0,1,56,149h5.32a3.55,3.55,0,0,1,3.54,3.54v5.32A3.55,3.55,0,0,1,61.28,161.39Z"/><path class="cls-6" d="M95.77,161.39H90.45a3.53,3.53,0,0,1-3.54-3.54v-5.32A3.54,3.54,0,0,1,90.45,149h5.32a3.54,3.54,0,0,1,3.54,3.54v5.32A3.55,3.55,0,0,1,95.77,161.39Z"/><path class="cls-6" d="M130.25,161.39h-5.32a3.53,3.53,0,0,1-3.54-3.54v-5.32a3.54,3.54,0,0,1,3.54-3.54h5.32a3.55,3.55,0,0,1,3.54,3.54v5.32A3.55,3.55,0,0,1,130.25,161.39Z"/><path class="cls-6" d="M164.72,161.39H159.4a3.53,3.53,0,0,1-3.53-3.54v-5.32A3.54,3.54,0,0,1,159.4,149h5.32a3.54,3.54,0,0,1,3.54,3.54v5.32A3.53,3.53,0,0,1,164.72,161.39Z"/><path class="cls-6" d="M199.22,161.39h-5.33a3.53,3.53,0,0,1-3.53-3.54v-5.32a3.54,3.54,0,0,1,3.53-3.54h5.33a3.54,3.54,0,0,1,3.53,3.54v5.32A3.54,3.54,0,0,1,199.22,161.39Z"/><path class="cls-6" d="M233.69,161.39h-5.32a3.54,3.54,0,0,1-3.54-3.54v-5.32a3.55,3.55,0,0,1,3.54-3.54h5.32a3.54,3.54,0,0,1,3.54,3.54v5.32A3.53,3.53,0,0,1,233.69,161.39Z"/><path class="cls-6" d="M268.18,161.39h-5.32a3.54,3.54,0,0,1-3.54-3.54v-5.32a3.55,3.55,0,0,1,3.54-3.54h5.32a3.54,3.54,0,0,1,3.54,3.54v5.32A3.55,3.55,0,0,1,268.18,161.39Z"/><path class="cls-6" d="M302.66,161.39h-5.32a3.53,3.53,0,0,1-3.54-3.54v-5.32a3.54,3.54,0,0,1,3.54-3.54h5.32a3.54,3.54,0,0,1,3.54,3.54v5.32A3.54,3.54,0,0,1,302.66,161.39Z"/><path class="cls-6" d="M26.8,190.91H21.48a3.55,3.55,0,0,1-3.54-3.54v-5.32a3.54,3.54,0,0,1,3.54-3.54H26.8a3.53,3.53,0,0,1,3.54,3.54v5.32A3.55,3.55,0,0,1,26.8,190.91Z"/><path class="cls-6" d="M61.28,190.91H56a3.54,3.54,0,0,1-3.54-3.54v-5.32A3.53,3.53,0,0,1,56,178.51h5.32a3.54,3.54,0,0,1,3.54,3.54v5.32A3.55,3.55,0,0,1,61.28,190.91Z"/><path class="cls-6" d="M95.77,190.91H90.45a3.54,3.54,0,0,1-3.54-3.54v-5.32a3.53,3.53,0,0,1,3.54-3.54h5.32a3.53,3.53,0,0,1,3.54,3.54v5.32A3.55,3.55,0,0,1,95.77,190.91Z"/><path class="cls-6" d="M130.25,190.91h-5.32a3.54,3.54,0,0,1-3.54-3.54v-5.32a3.53,3.53,0,0,1,3.54-3.54h5.32a3.54,3.54,0,0,1,3.54,3.54v5.32A3.55,3.55,0,0,1,130.25,190.91Z"/><path class="cls-6" d="M164.72,190.91H159.4a3.54,3.54,0,0,1-3.53-3.54v-5.32a3.53,3.53,0,0,1,3.53-3.54h5.32a3.53,3.53,0,0,1,3.54,3.54v5.32A3.53,3.53,0,0,1,164.72,190.91Z"/><path class="cls-6" d="M199.22,190.91h-5.33a3.54,3.54,0,0,1-3.53-3.54v-5.32a3.53,3.53,0,0,1,3.53-3.54h5.33a3.53,3.53,0,0,1,3.53,3.54v5.32A3.54,3.54,0,0,1,199.22,190.91Z"/><path class="cls-6" d="M233.69,190.91h-5.32a3.55,3.55,0,0,1-3.54-3.54v-5.32a3.54,3.54,0,0,1,3.54-3.54h5.32a3.53,3.53,0,0,1,3.54,3.54v5.32A3.53,3.53,0,0,1,233.69,190.91Z"/><path class="cls-6" d="M268.18,190.91h-5.32a3.55,3.55,0,0,1-3.54-3.54v-5.32a3.54,3.54,0,0,1,3.54-3.54h5.32a3.53,3.53,0,0,1,3.54,3.54v5.32A3.55,3.55,0,0,1,268.18,190.91Z"/><path class="cls-6" d="M302.66,190.91h-5.32a3.54,3.54,0,0,1-3.54-3.54v-5.32a3.53,3.53,0,0,1,3.54-3.54h5.32a3.53,3.53,0,0,1,3.54,3.54v5.32A3.54,3.54,0,0,1,302.66,190.91Z"/><path class="cls-6" d="M26.8,220.42H21.48a3.54,3.54,0,0,1-3.54-3.54v-5.32A3.55,3.55,0,0,1,21.48,208H26.8a3.54,3.54,0,0,1,3.54,3.54v5.32A3.54,3.54,0,0,1,26.8,220.42Z"/><path class="cls-6" d="M61.28,220.42H56a3.53,3.53,0,0,1-3.54-3.54v-5.32A3.54,3.54,0,0,1,56,208h5.32a3.55,3.55,0,0,1,3.54,3.54v5.32A3.54,3.54,0,0,1,61.28,220.42Z"/><path class="cls-6" d="M95.77,220.42H90.45a3.53,3.53,0,0,1-3.54-3.54v-5.32A3.54,3.54,0,0,1,90.45,208h5.32a3.54,3.54,0,0,1,3.54,3.54v5.32A3.54,3.54,0,0,1,95.77,220.42Z"/><path class="cls-6" d="M130.25,220.42h-5.32a3.53,3.53,0,0,1-3.54-3.54v-5.32a3.54,3.54,0,0,1,3.54-3.54h5.32a3.55,3.55,0,0,1,3.54,3.54v5.32A3.55,3.55,0,0,1,130.25,220.42Z"/><path class="cls-6" d="M164.72,220.42H159.4a3.53,3.53,0,0,1-3.53-3.54v-5.32A3.54,3.54,0,0,1,159.4,208h5.32a3.54,3.54,0,0,1,3.54,3.54v5.32A3.52,3.52,0,0,1,164.72,220.42Z"/><path class="cls-6" d="M26.8,249.94H21.48a3.55,3.55,0,0,1-3.54-3.54v-5.32a3.54,3.54,0,0,1,3.54-3.54H26.8a3.53,3.53,0,0,1,3.54,3.54v5.32A3.54,3.54,0,0,1,26.8,249.94Z"/><path class="cls-6" d="M61.28,249.94H56a3.54,3.54,0,0,1-3.54-3.54v-5.32A3.53,3.53,0,0,1,56,237.54h5.32a3.54,3.54,0,0,1,3.54,3.54v5.32A3.54,3.54,0,0,1,61.28,249.94Z"/><path class="cls-6" d="M95.77,249.94H90.45a3.54,3.54,0,0,1-3.54-3.54v-5.32a3.53,3.53,0,0,1,3.54-3.54h5.32a3.53,3.53,0,0,1,3.54,3.54v5.32A3.54,3.54,0,0,1,95.77,249.94Z"/><path class="cls-6" d="M130.25,249.94h-5.32a3.54,3.54,0,0,1-3.54-3.54v-5.32a3.53,3.53,0,0,1,3.54-3.54h5.32a3.54,3.54,0,0,1,3.54,3.54v5.32A3.55,3.55,0,0,1,130.25,249.94Z"/><path class="cls-6" d="M164.72,249.94H159.4a3.54,3.54,0,0,1-3.53-3.54v-5.32a3.53,3.53,0,0,1,3.53-3.54h5.32a3.53,3.53,0,0,1,3.54,3.54v5.32A3.52,3.52,0,0,1,164.72,249.94Z"/><path class="cls-7" d="M0,61c0-1.38,70.35-12.41,70.35-12.41H347.59V240.28s-20.68,37.24-22.06,38.63,0-219.32,0-219.32Z"/><polygon class="cls-7" points="70.34 51.31 1.37 60.97 335.17 62.35 331.03 55.46 70.34 51.31"/><circle class="cls-8" cx="201.09" cy="215.17" r="3.86"/><path class="cls-9" d="M201,226.57h-.24a3.29,3.29,0,0,1-3.28-3.29V223a3.28,3.28,0,0,1,3.28-3.28H201A3.29,3.29,0,0,1,204.3,223v.24A3.29,3.29,0,0,1,201,226.57Z"/><path class="cls-9" d="M209.2,226.55H209a3.29,3.29,0,0,1-3.29-3.28V223a3.3,3.3,0,0,1,3.29-3.29h.23a3.3,3.3,0,0,1,3.29,3.29v.25A3.28,3.28,0,0,1,209.2,226.55Z"/><path class="cls-9" d="M209.22,218.37H209a3.29,3.29,0,0,1-3.29-3.28v-.24a3.3,3.3,0,0,1,3.29-3.29h.24a3.29,3.29,0,0,1,3.28,3.29v.24A3.28,3.28,0,0,1,209.22,218.37Z"/><path class="cls-9" d="M217.45,218.47h-.24a3.29,3.29,0,0,1-3.28-3.29v-.24a3.28,3.28,0,0,1,3.28-3.28h.24a3.29,3.29,0,0,1,3.29,3.28v.24A3.29,3.29,0,0,1,217.45,218.47Z"/><path class="cls-9" d="M217.39,234.75h-.24a3.3,3.3,0,0,1-3.29-3.29v-.24a3.29,3.29,0,0,1,3.29-3.28h.24a3.29,3.29,0,0,1,3.28,3.28v.24A3.3,3.3,0,0,1,217.39,234.75Z"/><path class="cls-9" d="M209.22,234.75H209a3.3,3.3,0,0,1-3.29-3.29v-.24a3.29,3.29,0,0,1,3.29-3.28h.24a3.28,3.28,0,0,1,3.28,3.28v.24A3.29,3.29,0,0,1,209.22,234.75Z"/><path class="cls-9" d="M201,234.75h-.24a3.29,3.29,0,0,1-3.28-3.29v-.24a3.28,3.28,0,0,1,3.28-3.28H201a3.29,3.29,0,0,1,3.29,3.28v.24A3.29,3.29,0,0,1,201,234.75Z"/><path class="cls-9" d="M201,242.91h-.24a3.28,3.28,0,0,1-3.28-3.28v-.24a3.29,3.29,0,0,1,3.28-3.29H201a3.3,3.3,0,0,1,3.29,3.29v.24A3.28,3.28,0,0,1,201,242.91Z"/><path class="cls-9" d="M209.22,242.91H209a3.29,3.29,0,0,1-3.29-3.28v-.24A3.3,3.3,0,0,1,209,236.1h.24a3.29,3.29,0,0,1,3.28,3.29v.24A3.28,3.28,0,0,1,209.22,242.91Z"/><path class="cls-9" d="M203.83,226.62H198a.5.5,0,0,1-.5-.51v-5.87a.5.5,0,0,1,.5-.51h5.88a.51.51,0,0,1,.51.51v5.87A.52.52,0,0,1,203.83,226.62Z"/><path class="cls-9" d="M212,218.41h-5.87a.5.5,0,0,1-.51-.5V212a.51.51,0,0,1,.51-.51H212a.51.51,0,0,1,.51.51v5.88A.49.49,0,0,1,212,218.41Z"/><path class="cls-9" d="M220.26,218.52h-5.88a.51.51,0,0,1-.51-.51v-5.87a.51.51,0,0,1,.51-.51h5.88a.5.5,0,0,1,.5.51V218A.49.49,0,0,1,220.26,218.52Z"/><path class="cls-9" d="M212,226.61h-5.88a.5.5,0,0,1-.5-.51v-5.88a.5.5,0,0,1,.5-.5H212a.5.5,0,0,1,.51.5v5.88A.51.51,0,0,1,212,226.61Z"/><path class="cls-9" d="M203.83,234.79H198a.5.5,0,0,1-.5-.51V228.4a.5.5,0,0,1,.5-.5h5.88a.5.5,0,0,1,.51.5v5.88A.51.51,0,0,1,203.83,234.79Z"/><path class="cls-9" d="M212,234.79h-5.87a.51.51,0,0,1-.51-.51V228.4a.5.5,0,0,1,.51-.5H212a.5.5,0,0,1,.51.5v5.88A.49.49,0,0,1,212,234.79Z"/><path class="cls-9" d="M220.2,234.79h-5.87a.51.51,0,0,1-.51-.51V228.4a.5.5,0,0,1,.51-.5h5.87a.5.5,0,0,1,.51.5v5.88A.51.51,0,0,1,220.2,234.79Z"/><path class="cls-9" d="M203.83,243H198a.5.5,0,0,1-.5-.5v-5.88a.5.5,0,0,1,.5-.51h5.88a.51.51,0,0,1,.51.51v5.88A.5.5,0,0,1,203.83,243Z"/><path class="cls-9" d="M212,243h-5.87a.5.5,0,0,1-.51-.5v-5.88a.51.51,0,0,1,.51-.51H212a.51.51,0,0,1,.51.51v5.88A.49.49,0,0,1,212,243Z"/></g></g></g></svg>